# xmcd CD database file
#
# Track frame offsets:
#	150
#	14615
#	34515
#	50708
#	74693
#	89967
#	107336
#	122961
#	141828
#	161252
#	174475
#	194839
#
# Disc length: 2858 seconds
#
# Revision: 0
# Processed by: cddbd v1.5.2PL0 Copyright (c) Steve Scherf et al.
# Submitted via: CDex 1.51
#
DISCID=b30b280c
DTITLE=Enigma - Seven Lives Many Faces
DYEAR=2008
DGENRE=New Age
TTITLE0=Encounters
TTITLE1=Seven Lives
TTITLE2=Touchness
TTITLE3=The Same Parents
TTITLE4=Fata Morgana
TTITLE5=Hell's Heaven
TTITLE6=La Puerta Del Cielo
TTITLE7=Distorted Love
TTITLE8=Je T'Aime Till My Dying Day
TTITLE9=Deja Vu
TTITLE10=Between Generations
TTITLE11=The Language Of Sound
EXTD=YEAR: 2008
EXTT0=
EXTT1=
EXTT2=
EXTT3=
EXTT4=
EXTT5=
EXTT6=
EXTT7=
EXTT8=
EXTT9=
EXTT10=
EXTT11=
PLAYORDER=
